<svg width="224" height="80" fill="none" xmlns="http://www.w3.org/2000/svg"><path d="M13.68 26.16c2.77 0 4.9.7 6.4 2.08 1.52 1.39 2.28 3.36 2.28 5.92 0 2-.45 3.76-1.36 5.28a9.18 9.18 0 0 1-3.84 3.48 12.72 12.72 0 0 1-5.76 1.24H9.08L9.32 52H2.8l.36-7.64L2.8 26.2l10.88-.04Zm-1.12 13.32a4.14 4.14 0 0 0 2.24-1.64c.5-.77.76-1.79.76-3.04 0-1.33-.33-2.32-1-2.96-.64-.64-1.65-.99-3.04-1.04l-2.16.12-.2 8.4 3.4.16Zm25.5 8L37.68 52H25.25l.28-5.96-.28-14.36h6.12l-.36 13.76.08 1.64h6.64l.32.4ZM59.45 52H53.4l-.56-3.24-.08-.32-3.72-.08-3.2.08-.6 3.56h-5.88l6.76-20.32h7.2L59.47 52Zm-7.87-8.04-1.8-6.88h-.36l-2.2 6.88 2.16.04 2.2-.04Zm30.16 1.44L82 52h-6.56l-6.92-11.28h-.32l-.04 4 .2 7.28h-5.44l.28-5.96-.28-14.36h6.52l6.92 11.24h.4l-.2-11.04 5.52-.32-.32 13.84Zm20.22 1.76.36.4-.4 4.44H87.25l.28-5.96-.28-14.36h14.88l.36.44-.4 4.4-5.28-.2h-3.56l-.08 3.12h3.44l3.48-.12.32.44-.36 4.44-3.84-.12-3.16.04-.04 1.32.08 1.92h3.36l5.52-.2Zm18.6-15.04-.37 4.48-4.24-.24h-.72l-.16 9.08.24 6.56h-6l.28-5.96-.16-9.68h-.72l-4.32.24-.4-.44.36-4.48h15.88l.32.44Zm14.2-5.96c2.78 0 4.91.7 6.4 2.08 1.52 1.39 2.28 3.36 2.28 5.92 0 2-.45 3.76-1.36 5.28a9.18 9.18 0 0 1-3.84 3.48 12.72 12.72 0 0 1-5.76 1.24h-2.32l.24 7.84h-6.52l.36-7.64-.36-18.16 10.88-.04Zm-1.12 13.32a4.14 4.14 0 0 0 2.24-1.64c.51-.77.76-1.79.76-3.04 0-1.33-.33-2.32-1-2.96-.64-.64-1.65-.99-3.04-1.04l-2.16.12-.2 8.4 3.4.16Zm25.5 8-.36 4.52h-12.44l.28-5.96-.28-14.36h6.12l-.36 13.76.08 1.64h6.64l.32.4ZM180.56 52h-6.08l-.56-3.24-.08-.32-3.72-.08-3.2.08-.6 3.56h-5.88l6.76-20.32h7.2L180.56 52Zm-7.88-8.04-1.8-6.88h-.36l-2.2 6.88 2.16.04 2.2-.04Zm30.17 1.44.24 6.6h-6.56l-6.92-11.28h-.32l-.04 4 .2 7.28H184l.28-5.96-.28-14.36h6.52l6.92 11.24h.4l-.2-11.04 5.52-.32-.32 13.84Zm20.02-13.28-.36 4.48-4.24-.24h-.72l-.16 9.08.24 6.56h-6l.28-5.96-.16-9.68h-.72l-4.32.24-.4-.44.36-4.48h15.88l.32.44Z" fill="#829577"/><g filter="url(#a)" fill-rule="evenodd" clip-rule="evenodd" fill="#EAF319"><path d="M7.46 38.9c.63.23 1.05.7 1.46 1.16.17.2.35.4.57.6.45.44 1.05.77 1.36.59a.67.67 0 0 1 .6-.32c.37 0 .72-.03 1.03-.08l.18-.04c.07-.02.21-.07.38-.15a1.68 1.68 0 0 0 .74-.6.72.72 0 0 1 .26-.29c.07-.04.17-.1.22-.15.15-.18.4-.26.63-.23.23.04.43.2.53.42l.1.2c.68-.47 1.42-1 2.1-1.58a15.65 15.65 0 0 0 .4-1.02c.48-.8.75-1.29.95-1.83a2.93 2.93 0 0 0-.05-2.1c-.09-.5-.26-.9-.42-1.24-.15-.3-.34-.61-.56-.93-.38-.15-.6-.45-.76-.66l-.04-.06a.85.85 0 0 0-.17-.2.64.64 0 0 1-.61-.56c-.1-.08-.18-.17-.24-.27l-.13-.08a.69.69 0 0 1-.42-.3l-.04-.04a1.6 1.6 0 0 1-.25-.08.7.7 0 0 1-.88-.23l-.07-.07h-.09c-.15 0-.38-.02-.63-.15a.68.68 0 0 1-.15-.1c-.56.12-.98-.27-1.15-.43l-.02-.01a.7.7 0 0 1-.7.1l-.12.04-.06.03a.69.69 0 0 1-.58.26h-.05a.97.97 0 0 1-.3.1.88.88 0 0 1-.6-.1l-.01.01c-.16.16-.36.35-.64.46a.7.7 0 0 1-.63-.07l-.04-.02a3.6 3.6 0 0 0-1.25 1.5l-.62 1.2c-.26.47-.52.84-.82 1.18.02.06.02.12.02.2a.7.7 0 0 1-.08.7l-.02.15a.7.7 0 0 1-.39.45c0 .14.03.3.1.5l.07.22c.11.33.25.7.27 1.13 0 .1 0 .2-.04.28-.1.27 0 .83.4 1.39.41.62 1.02 1 1.26 1.13Zm3.18 3.8c-.67 0-1.41-.35-2.1-1.02a9.66 9.66 0 0 1-.67-.7c-.33-.37-.6-.67-.9-.77a5.24 5.24 0 0 1-1.92-1.65c-.45-.64-.83-1.62-.61-2.47-.03-.2-.1-.41-.18-.64l-.1-.26a2.45 2.45 0 0 1-.03-1.66.7.7 0 0 1 .11-.19l.03-.28a.67.67 0 0 1 .08-.17c-.17-.25-.36-.65-.08-1.03.15-.19.41-.35.76-.28.15-.2.29-.41.43-.66l.62-1.2c.62-1.19 1.38-1.95 2.24-2.27a.68.68 0 0 1 .43-.01 2 2 0 0 1 .16.05c.18-.18.62-.58 1.27-.45a.7.7 0 0 1 .88-.25c.2-.14.42-.19.57-.22.14-.03.3-.02.43.03.13-.02.24-.02.33 0 .15.01.3.07.46.17l.05.03.1.03c.15.06.28.11.4.18a.7.7 0 0 1 .7.09.8.8 0 0 1 .36.28c.1 0 .21.02.33.06a.7.7 0 0 1 .77.15c.16.16.32.23.54.24.26.02.5.17.6.41l.07.08a.7.7 0 0 1 .58.38l.01.02c.1.04.19.1.25.18.1.1.16.23.18.36.25.19.41.42.5.54.06.1.15.2.18.23.19.03.33.12.45.26.33.44.6.9.83 1.34.2.42.42.93.53 1.59.4 1.29.22 2.18 0 2.82-.25.7-.6 1.31-1.03 2.03l-.4 1.04a.7.7 0 0 1-.2.26c-.91.8-1.9 1.5-2.76 2.08a.7.7 0 0 1-.7.05 2 2 0 0 1-.5-.33 3.88 3.88 0 0 1-1.68.99l-.22.05a8.54 8.54 0 0 1-.98.1.75.75 0 0 1-.31.17c-.27.14-.56.21-.86.21ZM6.07 21.02c0 .28-.16.43-.01.62.02.12.1.22.15.32.17 0 .04.14.19.15l-.08.05c.05.01.09.02.05.06h-.03c.07.02.05.07.08.07H6.4l.02.04h-.04c.09.03.1.09.1.15l.1-.04c-.1.14.14.11.03.25h-.03c.32.03-.13.26.17.3-.04-.01-.05.02-.08.03.05.04.08.1.29.03 0 .04-.06.05-.13.09.09-.04.13-.01.15.02h-.04l.06.08.16-.08c-.03.07-.2.08-.15.12l.14-.05c0 .08-.2.19-.3.29.03.29.47.46.3.8l-.1.04c-.16.05.25 0 .1.05h.08c-.02.02-.05.05-.09.05 0 .02.03.02.08.02l-.08.06c-.05.13.17.17.16.29-.16.2.1.4.25.5.3.18-.29.48.03.67-.02 0 .03.02.05.01l.03.24s.06.32.32.48c.13.08.29.07.41-.07.13-.14.28-.38.56-.6l.03-.01c.06-.1.07-.14-.12-.15.2-.07 0-.08.06-.12h.02c-.17-.03.11-.16-.05-.2l.09.01c-.04-.04-.1-.1.02-.13-.05-.11-.05-.34-.26-.33h.03c-.14 0-.03-.05-.11-.08l.03-.02c-.15 0-.06-.11-.13-.13l.08-.03-.04-.08v.04c-.23.05.11-.11-.05-.13.01-.07-.5.02-.4-.07-.12 0 .17-.03.08-.05.11-.04.08 0 .17-.04-.07-.03.1-.1 0-.14l.1-.03c-.2-.01.07-.16-.1-.16-.1-.05.26-.13.05-.15l.12-.07c.01-.04-.16.02-.1-.03.07-.02.04-.06.12-.06.1-.12-.22-.11-.05-.28-.15.02-.08-.06-.2-.04.07-.02-.02-.1.14-.1.02 0 .02.02-.01.02l.09-.02c.15-.11-.12-.08-.11-.15-.03.03-.01.05-.08.06v-.06l.07-.01.02-.1-.09.04c.04-.06.2-.12.05-.12-.08 0-.11.08-.16.04.05-.07.12-.18.13-.26-.1.04-.1.02-.13 0l.09-.03c-.15-.02.19-.09.07-.12l.06-.02-.19.04c-.2 0 .17-.1-.09-.08.03.02-.2.07-.16.03l.09-.02c-.03-.02-.07-.01-.05-.03.05 0 .13-.03.1-.06l.12-.02h-.18c.08-.07-.06-.1.06-.15 0 0 .04-.11-.1-.09.08 0 .1-.07.2-.09-.1.01-.2-.03-.1-.1v.01c.08-.14-.18-.13-.09-.26-.1.04-.06-.03-.19.03-.16-.05.22-.26-.2-.16-.03-.03.08-.08.1-.11h.02c-.06-.07-.07-.09-.07-.15-.06-.02-.25.04-.22-.03.08 0 .06-.02.06-.04.01 0 .04 0 .09-.04h-.06.02c-.04-.03-.06-.02-.06 0a.52.52 0 0 0-.05.02c.09-.06-.04-.09.1-.14-.07-.09-.22-.11-.3-.18.07-.03.13-.03.16-.02l-.04-.05c.1-.03.07.02.1.03.13-.12-.2-.1-.08-.22l-.09.02.02-.02a.22.22 0 0 1-.12.01c.08-.03.2-.06.18-.1.07-.05-.06-.06-.12-.09 0 .03-.06.04-.09.04 0-.02.08-.06.04-.06l.11-.03c-.1.03-.13-.02-.18-.01.09-.03.08 0 .15 0l-.04-.1c-.1-.02-.1.03-.21.03-.03-.03-.12-.05-.05-.1l-.1.02c-.1-.05-.09-.1.01-.16-.44-.23-.7-.35-.9-.31-.2.04-.28.22-.28.22-.22.35.12.5.27.8ZM12.91 44.3c0 .23-.18.34-.05.5 0 .1.07.2.11.28.17 0 .03.12.17.14l-.08.04c.05 0 .08.02.04.05l-.03.01c.08 0 .04.05.08.05h-.03l.02.04h-.04c.08.03.1.08.07.13l.11-.03c-.1.12.13.1 0 .22h-.02c.3.03-.16.22.13.26-.04-.01-.05.02-.08.02.04.04.07.1.28.04 0 .04-.06.05-.14.07.1-.02.14 0 .15.03h-.04l.05.07.17-.06c-.04.05-.21.06-.16.09l.14-.03c-.01.06-.22.15-.32.23 0 .25.42.43.2.72l-.1.04c-.15.04.25 0 .1.05l.08.01c-.02.02-.05.04-.1.03 0 .03.03.02.09.03l-.1.05c-.05.12.15.15.13.27-.17.17.06.36.2.46.28.14-.32.45.01.62-.02.02.03.02.05.02l.05.22.07.16c.06.1.16.22.3.28.15.06.31.02.4-.15.09-.17.2-.43.47-.64l.04-.02c.06-.07.07-.1-.12-.08.2-.09 0-.06.07-.1l.02-.01c-.18 0 .1-.13-.05-.14h.08c-.03-.03-.1-.07.03-.1-.05-.07-.04-.28-.24-.27h.03c-.14 0-.03-.05-.1-.07h.03c-.14-.01-.05-.11-.1-.13l.08-.02-.04-.07-.01.03c-.23.05.13-.1-.03-.11.02-.06-.48.02-.39-.06-.1 0 .18-.02.09-.04.12-.03.08 0 .17-.04-.06-.02.1-.1.02-.12l.09-.02c-.18-.02.1-.14-.07-.14-.1-.05.26-.12.07-.13l.12-.06c.01-.03-.16.02-.1-.03.07-.01.05-.05.13-.05.1-.1-.2-.1-.02-.24-.15.02-.07-.05-.19-.03.07-.02 0-.1.15-.08l-.02.01.1-.01c.15-.1-.12-.07-.1-.13-.03.02-.02.04-.08.04v-.05h.08l.03-.09-.1.03c.05-.05.2-.1.06-.1-.08 0-.12.06-.15.03.05-.06.13-.16.15-.22-.1.03-.1 0-.13 0l.09-.03c-.14-.03.2-.07.08-.11l.06-.01-.2.03c-.18-.01.2-.08-.07-.08.02.02-.2.06-.16.02l.09-.01c-.03-.02-.06-.02-.05-.03.05 0 .13-.03.1-.05l.13-.01h-.18c.09-.07-.04-.1.08-.14 0 0 .04-.1-.1-.08.09 0 .11-.06.22-.08-.1.01-.2-.03-.1-.08h.01c.09-.12-.17-.12-.06-.23-.1.03-.06-.03-.2.02-.15-.05.25-.23-.18-.15-.02-.03.1-.07.1-.1h.04c-.05-.06-.06-.08-.06-.13-.05-.02-.25.03-.21-.03.08 0 .06-.02.06-.04.01.01.04 0 .09-.03a.2.2 0 0 1-.05 0h.02c-.04-.03-.06-.02-.07 0a.2.2 0 0 0-.05.02c.1-.06-.02-.09.11-.13-.05-.08-.2-.1-.27-.16.07-.03.13-.03.16-.02l-.04-.04c.1-.03.07.01.1.02.13-.1-.2-.08-.07-.2l-.08.02v-.01a.23.23 0 0 1-.1 0c.07-.03.19-.05.17-.08.08-.05-.05-.07-.1-.09-.02.02-.07.03-.1.03 0-.02.08-.05.04-.05l.11-.03c-.1.03-.12-.02-.17 0 .08-.04.08 0 .14-.01l-.03-.1c-.1 0-.11.03-.22.04-.03-.03-.11-.04-.05-.09l-.1.03c-.1-.05-.09-.09.01-.14-.45-.18-.74-.24-.92-.19-.19.06-.26.2-.26.2-.2.3.13.4.26.63ZM23.37 42.4c-.1-.16-.02-.36-.21-.4-.06-.07-.16-.1-.25-.13-.13.1-.09-.07-.21.01l.04-.08c-.04.03-.07.04-.06-.01l.02-.02c-.06.03-.06-.01-.1 0l.03-.02h-.03l.02-.03c-.08.03-.12 0-.12-.05l-.07.1c0-.16-.17 0-.13-.16l.02-.02c-.27.16 0-.25-.25-.1l.06-.07c-.06-.01-.1-.03-.25.13-.03-.03.02-.07.08-.14-.07.08-.12.08-.14.07l.04-.02-.08-.03-.11.15c0-.07.14-.18.08-.17l-.1.11c-.02-.06.11-.26.14-.38-.11-.21-.54-.1-.51-.46l.07-.09c.1-.12-.21.14-.11.02l-.07.04c.01-.03.03-.06.06-.08-.01-.02-.03 0-.08.02l.06-.09c-.01-.12-.2-.03-.24-.13.06-.24-.22-.25-.39-.26-.29.06.03-.57-.3-.49.02-.02-.03 0-.05.02l-.1-.13s-.5-.62-1.04.8l-.03.03c0 .13.03.18.2.1-.15.17.03.06 0 .13l-.01.01c.16-.08-.02.2.12.12-.01.01-.05.05-.07.05.05 0 .12 0 .04.1.09.05.14.19.32.08l-.03.02c.12-.08.05.02.12 0a.1.1 0 0 0-.01.02c.12-.07.09.06.15.04l-.06.07.07.04v-.04c.16-.16-.07.15.07.08.02.06.4-.3.37-.17.09-.06-.14.12-.06.08-.08.1-.06.05-.12.13.06-.02-.05.13.04.1l-.07.08c.17-.1 0 .17.14.07.1-.01-.17.24 0 .15l-.07.12c0 .03.13-.1.1-.04-.05.06-.01.08-.08.12-.04.15.22-.04.14.2.12-.11.09-.01.18-.09-.05.05.05.07-.08.15-.01 0-.02 0 0-.02l-.07.07c-.08.17.14-.01.15.05.01-.04 0-.05.05-.09l.02.05-.06.05.02.09.06-.09c-.01.07-.11.2 0 .13.07-.05.07-.13.12-.13-.01.09-.03.21-.01.28.07-.09.08-.07.1-.08l-.06.07c.13-.05-.13.18-.01.15l-.05.04.15-.14c.16-.1-.12.18.1.02-.03 0 .13-.17.13-.11l-.07.06c.02 0 .05-.03.05 0-.04.03-.1.1-.07.1l-.08.08.14-.1c-.04.1.08.05 0 .16 0 0 .03.1.13 0-.07.06-.06.11-.14.18.09-.06.19-.09.14.01h-.01c0 .15.21-.01.19.14.07-.09.06-.01.14-.13.16-.06-.06.32.24 0 .05 0-.03.1-.03.13l-.02.01c.08.02.1.03.13.07.05-.02.18-.18.19-.11-.07.06-.04.06-.03.07-.02 0-.04.02-.05.08a.18.18 0 0 1 .04-.03l-.01.01c.04 0 .05-.03.05-.05l.02-.04c-.04.1.07.05 0 .16.08.03.21-.05.3-.04a.26.26 0 0 1-.12.11l.06.01c-.07.08-.06.03-.09.04-.05.17.2-.06.17.11l.06-.06v.02a.24.24 0 0 1 .08-.08c-.04.08-.12.17-.1.19-.02.09.1 0 .16 0-.01-.03.02-.07.05-.09.01 0-.03.09 0 .07l-.07.1c.06-.1.11-.08.14-.11-.04.08-.06.04-.1.1l.09.05c.08-.05.06-.1.14-.18.04 0 .11-.05.1.04l.05-.1c.1-.03.12 0 .09.12.44-.23.66-.44.75-.62.1-.17.06-.3.06-.3-.04-.33-.3-.13-.5-.18ZM25.72 30.7c-.2-.04-.26-.25-.46-.16-.1 0-.2.05-.29.08-.03.17-.12 0-.17.15l-.02-.1c-.02.06-.04.09-.06.04v-.03c-.02.07-.05.03-.07.07v-.03l-.03.02v-.04c-.04.08-.09.09-.13.05v.12c-.09-.13-.11.11-.2-.04v-.02c-.1.3-.18-.2-.27.1l-.01-.1c-.05.04-.1.06-.1.29-.03 0-.03-.07-.04-.16 0 .1-.02.15-.05.15l.01-.04-.08.04.03.19c-.05-.05-.03-.23-.06-.18v.15c-.06-.02-.1-.26-.17-.37-.24-.05-.48.36-.72.1l-.02-.12c-.01-.17-.05.26-.06.1l-.03.08c0-.03-.02-.06-.01-.1-.03 0-.02.02-.04.07l-.03-.1c-.1-.08-.17.13-.27.1-.14-.22-.35 0-.48.12-.18.27-.38-.43-.53-.13-.01-.03-.03.03-.03.04l-.14-.02s-.18-.02-.31.14c-.12.16-.25.5.03 1.2v.04c.1.1.16.12.24-.07 0 .23.08.03.1.1v.02c.07-.17.13.15.2 0 0 .01 0 .07-.02.08.04-.03.1-.08.11.05.1-.03.27.03.31-.18v.03c.03-.14.04-.02.08-.1v.04c.03-.15.12-.03.14-.1l.01.1.07-.03-.03-.02c0-.24.07.15.12 0 .05.02.07-.52.13-.4.02-.12-.01.18.02.1v.17c.04-.06.08.13.12.04v.1c.05-.18.12.13.15-.05.06-.08.06.3.12.1l.03.13c.03.02 0-.17.04-.1 0 .08.04.06.03.14.08.13.13-.2.24.03 0-.17.06-.07.06-.2.01.07.1 0 .05.17v-.02l-.01.1c.06.18.09-.1.14-.08-.02-.04-.03-.03-.03-.1l.06.02-.01.08.07.04-.01-.1c.03.05.06.22.09.08.01-.08-.04-.14 0-.17.04.07.12.17.18.2-.01-.12 0-.12.02-.14v.1c.06-.14.04.22.1.1v.07-.2c.05-.2.04.2.1-.07-.03.01-.03-.22 0-.18v.1c.02-.03.02-.07.03-.05 0 .06 0 .14.03.13l-.01.12.03-.18c.05.1.1-.03.12.1 0 0 .08.06.1-.09-.02.1.03.13.02.24.01-.1.07-.2.1-.09v.02c.1.1.14-.17.23-.03-.01-.12.03-.06.02-.2.07-.15.16.28.17-.17.04-.03.05.1.07.13v.02c.06-.04.08-.05.13-.04.03-.04.02-.26.07-.2-.01.08.01.06.03.06-.02.01-.02.05 0 .1l.02-.05v.01c.03-.03.02-.05 0-.06v-.06c.04.11.09 0 .1.14.08-.04.14-.2.2-.25.02.07 0 .14-.01.17l.05-.03c0 .1-.03.06-.05.08.08.17.12-.18.2-.02l.01-.09.01.02.02-.13c.02.1.01.22.05.21.03.1.07-.05.11-.1-.02-.02-.02-.07-.01-.1.02 0 .03.09.04.05l.01.12c-.01-.12.04-.13.05-.18.01.1-.03.08-.03.15l.1-.02c.04-.1 0-.12 0-.23.04-.03.07-.11.11-.04l-.02-.11c.06-.1.1-.08.15.03.42-.93.03-1.25.03-1.25-.2-.23-.27.1-.49.2ZM17.76 22.04c-.09.07-.17.07-.24.08h-.07a.23.23 0 0 0-.07.13c-.08.08-.1.2-.15.3.1.15-.08.12 0 .25l-.1-.04c.03.05.05.09 0 .07l-.03-.02c.04.07-.01.08 0 .11l-.01-.02-.01.04-.03-.03c.03.09 0 .14-.05.15l.09.07c-.16 0 0 .17-.17.16l-.02-.02c.18.27-.27.04-.1.3-.02-.04-.06-.04-.08-.05 0 .06-.02.12.16.24-.03.03-.07-.01-.15-.05.08.05.1.1.08.13l-.02-.04-.02.1.16.08c-.06 0-.2-.11-.18-.05l.13.08c-.05.03-.26-.06-.39-.07-.18.18.01.6-.33.66l-.1-.05c-.14-.09.18.18.04.1l.05.07c-.02-.01-.06-.01-.09-.05-.01.02 0 .04.04.08l-.1-.04c-.11.04.01.22-.08.28-.23 0-.19.3-.16.47.11.29-.56.17-.4.45l.04.04-.09.11s-.1.12-.03.29c.08.14.21.51.98.65l.02.02c.14-.04.2-.1.09-.26.19.1.06-.07.13-.05l.02.01c-.11-.15.18-.04.08-.17.02 0 .07.04.06.05 0-.05-.02-.13.1-.07.02-.1.12-.18-.03-.33l.03.02c-.1-.1 0-.05-.04-.12l.03.01c-.1-.1.04-.1.01-.16l.07.04.02-.07-.03.01c-.19-.13.16.03.06-.1.05-.03-.36-.35-.24-.33-.08-.08.14.11.1.04.1.06.05.05.14.1-.03-.07.13 0 .09-.08l.08.05c-.12-.14.16-.03.04-.15-.03-.1.27.11.14-.04l.12.05c.04-.01-.12-.1-.05-.1.07.05.07 0 .13.06.14.01-.08-.22.15-.18-.13-.1-.02-.09-.12-.17.07.04.06-.07.16.05 0 .01 0 .02-.02 0l.08.06c.17.05-.04-.13.01-.16-.03 0-.03.02-.08-.03l.03-.03.07.05.07-.04-.09-.04c.06 0 .21.07.11-.04-.05-.05-.13-.04-.13-.09.08 0 .2 0 .26-.04-.1-.06-.09-.07-.1-.1l.08.06c-.08-.13.2.09.13-.02l.06.04-.16-.12c-.13-.15.18.08 0-.1 0 .02-.19-.11-.13-.11l.07.05c0-.02-.04-.05-.02-.04.04.03.11.07.11.05l.1.07-.13-.13c.1.03.03-.08.15-.02 0 0 .1-.02-.01-.12.06.07.11.06.19.12-.07-.07-.1-.16-.01-.12v.01c.14 0-.03-.2.12-.17-.1-.07-.02-.06-.14-.14-.07-.15.3.07-.02-.23 0-.05.1.03.13.03l.01.02c.01-.08.02-.1.05-.13-.02-.04-.17-.18-.1-.19.05.07.05.05.06.03 0 .02.02.04.08.06a.34.34 0 0 1-.04-.05l.01.02c0-.04-.02-.06-.04-.05l-.04-.03c.1.04.04-.08.15.01.02-.08-.05-.23-.05-.32.05.04.1.1.1.13l.01-.06c.08.07.03.07.03.1.15.07-.04-.23.13-.2l-.05-.06h.01a.27.27 0 0 1-.07-.1c.07.06.16.14.18.1.08.04.01-.08 0-.14-.03 0-.06-.03-.08-.06 0-.01.08.04.06 0l.1.08c-.1-.07-.08-.11-.11-.15.07.05.04.07.1.12.02-.06 0-.03.03-.08-.04-.09-.08-.08-.15-.16 0-.04-.04-.12.03-.1l-.08-.06c-.02-.1.02-.12.11-.06-.1-.49-.11-.8-.25-.96-.14-.15-.33-.13-.33-.13-.46.04-.37.44-.45.68Z"/></g><path fill-rule="evenodd" clip-rule="evenodd" d="M128.46 38.9c.63.23 1.05.7 1.46 1.16.17.2.35.4.57.6.45.44 1.05.77 1.36.59a.67.67 0 0 1 .6-.32c.37 0 .72-.03 1.03-.08l.18-.04c.07-.02.21-.07.38-.15.33-.15.6-.36.72-.57l.02-.04a.71.71 0 0 1 .26-.28c.07-.04.17-.1.22-.15.15-.18.4-.26.63-.23.23.04.43.2.53.42l.1.2c.68-.47 1.42-1 2.1-1.58a16.3 16.3 0 0 0 .4-1.02c.48-.8.75-1.29.95-1.83a2.94 2.94 0 0 0-.05-2.1 4.4 4.4 0 0 0-.42-1.24c-.15-.3-.34-.61-.56-.93-.38-.15-.6-.45-.76-.66l-.04-.06a.84.84 0 0 0-.17-.2.64.64 0 0 1-.61-.56 1 1 0 0 1-.24-.27l-.13-.08a.7.7 0 0 1-.41-.3l-.06-.04a1.62 1.62 0 0 1-.24-.08.7.7 0 0 1-.88-.23l-.07-.07h-.09c-.15 0-.39-.02-.63-.15a.7.7 0 0 1-.15-.1c-.56.12-.98-.27-1.15-.43l-.02-.01a.7.7 0 0 1-.7.1l-.12.04-.06.03a.69.69 0 0 1-.58.26h-.05a.96.96 0 0 1-.3.1.88.88 0 0 1-.6-.1l-.01.01c-.16.16-.36.35-.64.46a.7.7 0 0 1-.63-.07l-.04-.02a3.6 3.6 0 0 0-1.25 1.5l-.62 1.2c-.26.47-.52.84-.82 1.18.02.06.02.12.02.2a.7.7 0 0 1-.08.7l-.02.15a.7.7 0 0 1-.39.45c0 .14.03.3.1.5l.07.22c.12.33.25.7.27 1.13 0 .1 0 .2-.04.28-.1.27 0 .83.4 1.39.41.62 1.02 1 1.26 1.13Zm3.18 3.8c-.67 0-1.41-.35-2.1-1.02a9.65 9.65 0 0 1-.67-.7c-.33-.37-.6-.67-.9-.77a5.24 5.24 0 0 1-1.92-1.65c-.45-.64-.83-1.62-.61-2.47-.03-.2-.1-.41-.18-.64l-.1-.26a2.44 2.44 0 0 1-.03-1.66.7.7 0 0 1 .11-.19l.03-.28a.69.69 0 0 1 .08-.17c-.17-.25-.36-.65-.08-1.03.15-.19.41-.35.76-.28.15-.2.29-.41.43-.66l.62-1.2c.62-1.19 1.38-1.95 2.24-2.27a.68.68 0 0 1 .43-.01l.16.05c.18-.18.62-.58 1.27-.45a.7.7 0 0 1 .88-.25c.2-.14.42-.19.57-.22.14-.03.3-.02.43.03.13-.02.24-.02.33 0 .15.01.3.07.46.17l.05.03.1.03c.15.06.28.11.4.18a.7.7 0 0 1 .7.09.8.8 0 0 1 .36.28c.1 0 .21.02.33.06l.1-.03a.7.7 0 0 1 .67.18c.16.16.32.23.54.24.26.02.5.17.6.41l.07.08a.7.7 0 0 1 .58.38l.01.02c.1.04.19.1.25.18.1.1.16.23.18.36.25.19.41.42.5.54.06.1.15.2.18.23.19.03.33.12.45.26.33.44.6.9.83 1.34.2.42.42.93.53 1.59.4 1.29.22 2.18 0 2.82-.25.7-.6 1.31-1.03 2.03-.13.37-.27.72-.4 1.04a.7.7 0 0 1-.2.26c-.91.8-1.9 1.5-2.76 2.08a.7.7 0 0 1-.7.05c-.2-.1-.36-.2-.5-.33a3.86 3.86 0 0 1-1.68.99l-.22.05a8.52 8.52 0 0 1-.98.1.75.75 0 0 1-.31.17c-.26.14-.56.21-.86.21ZM127.06 21.02c.02.28-.15.43 0 .62.02.12.1.22.15.32.17 0 .04.14.19.15l-.08.05c.05.01.09.02.05.06h-.03c.08.02.05.07.08.07h-.02l.02.04h-.04c.09.03.1.09.1.15l.1-.04c-.1.14.14.11.03.25h-.03c.31.03-.13.26.17.3-.04-.01-.05.02-.08.03.05.04.08.1.29.03 0 .04-.06.05-.13.09.09-.04.13-.01.15.02h-.04l.06.08.16-.08c-.03.07-.2.08-.15.12l.15-.05c-.01.08-.22.19-.3.29.02.29.46.46.29.8l-.1.04c-.16.05.25 0 .1.05h.08c-.02.02-.05.05-.09.05 0 .02.03.02.08.02l-.08.06c-.05.13.17.17.16.29-.16.2.1.4.24.5.31.18-.28.48.04.67-.03 0 .03.02.05.01l.03.24s.06.32.32.48c.13.08.29.07.41-.07.13-.14.28-.38.56-.6l.03-.01c.06-.1.07-.14-.12-.15.2-.07 0-.08.06-.12h.02c-.17-.03.11-.16-.05-.2l.09.01c-.04-.04-.1-.1.02-.13-.05-.11-.05-.34-.26-.33h.03c-.14 0-.03-.05-.11-.08l.03-.02c-.15 0-.06-.11-.13-.13l.09-.03-.05-.08v.04c-.23.05.11-.11-.05-.13.01-.07-.5.02-.4-.07-.12 0 .17-.03.08-.05.11-.04.08 0 .17-.04-.07-.03.1-.1 0-.14l.1-.03c-.2-.01.07-.16-.1-.16-.1-.05.25-.13.06-.15l.1-.07c.02-.04-.15.02-.1-.03.08-.02.05-.06.13-.06.1-.12-.22-.11-.05-.28-.15.02-.08-.06-.2-.04.07-.02-.02-.1.14-.1.02 0 .02.02-.01.02l.09-.02c.15-.11-.12-.08-.11-.15-.03.03-.01.05-.08.06v-.06l.07-.01.02-.1-.09.04c.04-.06.2-.12.05-.12-.08 0-.11.08-.16.04.05-.07.12-.18.13-.26-.1.04-.1.02-.13 0l.09-.03c-.15-.02.19-.09.07-.12l.06-.02-.19.04c-.2 0 .18-.1-.09-.08.03.02-.2.07-.16.03l.09-.02c-.03-.02-.07-.01-.05-.03.05 0 .13-.03.1-.06l.11-.02h-.17c.08-.07-.06-.1.06-.15 0 0 .04-.11-.1-.09.08 0 .1-.07.2-.09-.1.01-.2-.03-.1-.1v.01c.08-.14-.18-.13-.09-.26-.1.04-.06-.03-.19.03-.16-.05.22-.26-.2-.16-.03-.03.08-.08.1-.11h.02c-.06-.07-.07-.09-.07-.15-.06-.02-.25.04-.22-.03.08 0 .06-.02.06-.04.01 0 .04 0 .09-.04h-.06.02c-.04-.03-.06-.02-.06 0a.44.44 0 0 0-.05.02c.09-.06-.04-.09.1-.14-.07-.09-.22-.11-.3-.18.07-.03.13-.03.16-.02l-.04-.05c.1-.03.07.02.1.03.13-.12-.2-.1-.09-.22l-.08.02.02-.02a.22.22 0 0 1-.12.01c.08-.03.2-.06.18-.1.07-.05-.06-.06-.12-.09 0 .03-.06.04-.09.04 0-.02.08-.06.04-.06l.11-.03c-.1.03-.13-.02-.18-.01.09-.03.08 0 .15 0l-.04-.1c-.1-.02-.1.03-.21.03-.03-.03-.12-.05-.05-.1l-.1.02c-.1-.05-.09-.1.02-.16-.45-.23-.72-.35-.91-.31-.2.04-.28.22-.28.22-.22.35.12.5.27.8ZM133.91 44.3c0 .23-.18.34-.05.5 0 .1.07.2.11.28.17 0 .03.12.17.14l-.08.04c.05 0 .08.02.04.05l-.03.01c.08 0 .04.05.08.05h-.03l.02.04h-.04c.08.03.1.08.07.13l.11-.03c-.1.12.13.1 0 .22h-.02c.3.03-.16.22.13.26-.04-.01-.05.02-.08.02.04.04.07.1.28.04 0 .04-.06.05-.14.07.1-.02.14 0 .15.03h-.04l.05.07.17-.06c-.04.05-.21.06-.16.09l.14-.03c-.01.06-.22.15-.32.23 0 .25.41.43.2.72l-.1.04c-.16.04.25 0 .1.05l.08.01c-.02.02-.05.04-.1.03 0 .03.03.02.09.03l-.1.05c-.05.12.15.15.13.27-.17.17.06.36.2.46.28.14-.32.45.01.62-.02.02.03.02.05.02l.04.22.08.16c.06.1.16.22.3.28.15.06.31.02.4-.15.09-.17.2-.43.47-.64l.04-.02c.06-.07.07-.1-.12-.08.2-.09 0-.06.07-.1l.02-.01c-.18 0 .1-.13-.05-.14h.08c-.03-.03-.1-.07.03-.1-.05-.07-.04-.28-.24-.27h.03c-.14 0-.03-.05-.1-.07h.03c-.14-.01-.05-.11-.1-.13l.08-.02-.04-.07-.01.03c-.23.05.13-.1-.03-.11.02-.06-.48.02-.39-.06-.1 0 .18-.02.09-.04.12-.03.08 0 .17-.04-.06-.02.1-.1.02-.12l.09-.02c-.18-.02.1-.14-.07-.14-.1-.05.26-.12.07-.13l.12-.06c.01-.03-.16.02-.1-.03.07-.01.05-.05.13-.05.1-.1-.2-.1-.02-.24-.15.02-.07-.05-.19-.03.07-.02 0-.1.15-.08l-.02.01.1-.01c.15-.1-.12-.07-.1-.13-.03.02-.02.04-.08.04v-.05h.08l.03-.09-.1.03c.05-.05.2-.1.06-.1-.08 0-.12.06-.16.03.06-.06.14-.16.16-.22-.1.03-.1 0-.13 0l.09-.03c-.14-.03.2-.07.08-.11l.06-.01-.2.03c-.18-.01.2-.08-.07-.08.02.02-.2.06-.16.02l.09-.01c-.03-.02-.06-.02-.05-.03.05 0 .13-.03.1-.05l.13-.01h-.18c.09-.07-.04-.1.08-.14 0 0 .04-.1-.1-.08.09 0 .11-.06.22-.08-.1.01-.2-.03-.1-.08h.01c.09-.12-.17-.12-.06-.23-.1.03-.06-.03-.2.02-.14-.05.25-.23-.18-.15-.02-.03.1-.07.1-.1h.03c-.04-.06-.05-.08-.05-.13-.05-.02-.25.03-.21-.03.08 0 .06-.02.06-.04.01.01.04 0 .09-.03a.2.2 0 0 1-.06 0h.03c-.04-.03-.06-.02-.07 0-.01 0-.03 0-.05.02.1-.06-.02-.09.11-.13-.05-.08-.2-.1-.27-.16.06-.03.13-.03.16-.02l-.04-.04c.1-.03.07.01.1.02.13-.1-.2-.08-.07-.2l-.08.02v-.01a.22.22 0 0 1-.1 0c.08-.03.19-.05.18-.08.07-.05-.06-.07-.12-.09 0 .02-.06.03-.1.03 0-.02.09-.05.04-.05l.12-.03c-.1.03-.13-.02-.17 0 .08-.04.08 0 .14-.01l-.03-.1c-.1 0-.11.03-.22.04-.03-.03-.12-.04-.05-.09l-.1.03c-.1-.05-.08-.09.02-.14-.46-.18-.75-.24-.93-.19-.19.06-.26.2-.26.2-.2.3.13.4.26.63ZM144.37 42.4c-.1-.16-.02-.36-.21-.4-.06-.07-.16-.1-.25-.13-.13.1-.09-.07-.21.01l.04-.08c-.04.03-.07.04-.06-.01l.02-.02c-.06.03-.06-.01-.1 0l.03-.02h-.03l.02-.03c-.08.03-.12 0-.12-.05l-.07.1c0-.16-.17 0-.13-.16l.02-.02c-.27.16 0-.25-.25-.1l.06-.07c-.06-.01-.1-.03-.25.13-.03-.03.02-.07.08-.14-.07.08-.12.08-.14.07l.04-.02-.08-.03-.11.15c0-.07.14-.18.08-.17l-.1.11c-.02-.06.11-.26.14-.38-.11-.21-.54-.1-.51-.46l.07-.09c.1-.12-.21.14-.11.02l-.07.04c.01-.03.03-.06.06-.08-.01-.02-.03 0-.08.02l.06-.09c-.01-.12-.2-.03-.24-.13.06-.24-.22-.25-.39-.26-.29.06.02-.57-.3-.49.02-.02-.03 0-.04.02l-.1-.13s-.52-.62-1.05.8l-.03.03c0 .13.03.18.2.1-.15.17.03.06 0 .13l-.01.01c.16-.08-.02.2.12.12l-.06.05c.04 0 .11 0 .03.1.09.05.14.19.32.08l-.03.02c.13-.08.05.02.13 0a.08.08 0 0 0-.02.02c.12-.07.09.06.15.04l-.06.07.07.04v-.04c.16-.16-.07.15.07.08.02.06.4-.3.37-.17.09-.06-.14.12-.06.08-.08.1-.06.05-.13.13.07-.02-.04.13.05.1l-.06.08c.16-.1-.01.17.13.07.1-.01-.17.24 0 .15l-.07.12c0 .03.13-.1.1-.04-.05.06-.01.08-.08.12-.04.15.22-.04.14.2.12-.11.09-.01.18-.09-.05.05.06.07-.08.15-.01 0-.02 0 0-.02l-.07.07c-.08.17.14-.01.15.05.01-.04 0-.05.05-.09l.02.05-.06.05.02.09.06-.09c-.01.07-.12.2 0 .13.07-.05.07-.13.12-.13-.01.09-.03.21-.01.28.07-.09.08-.07.1-.08l-.06.07c.13-.05-.13.18-.01.15l-.05.04.15-.14c.16-.1-.12.18.1.02-.03 0 .13-.17.13-.11l-.07.06c.03 0 .05-.03.05 0-.04.03-.1.1-.07.1l-.08.08.14-.1c-.04.1.08.05 0 .16 0 0 .03.1.13 0-.07.06-.06.11-.13.18.08-.06.18-.09.13.01h-.01c0 .15.21-.01.19.14.07-.09.06-.01.15-.13.15-.06-.07.32.23 0 .05 0-.03.1-.03.13l-.02.01c.08.02.1.03.13.07.05-.02.18-.18.19-.11-.07.06-.04.06-.03.07-.01 0-.04.02-.05.08a.18.18 0 0 1 .04-.03l-.01.01c.04 0 .05-.03.05-.05l.02-.04c-.04.1.07.05 0 .16.08.03.21-.05.3-.04a.26.26 0 0 1-.12.11l.06.01c-.07.08-.06.03-.09.04-.05.17.2-.06.17.11l.06-.06v.02a.24.24 0 0 1 .08-.08c-.04.08-.12.17-.1.19-.02.09.1 0 .16 0-.01-.03.02-.07.05-.09.01 0-.03.09 0 .07l-.07.1c.06-.1.11-.08.14-.11-.04.08-.06.04-.1.1l.09.05c.08-.05.06-.1.14-.18.04 0 .11-.05.1.04l.05-.1c.1-.03.12 0 .09.12.44-.23.66-.44.75-.62.1-.17.06-.3.06-.3-.04-.33-.3-.13-.5-.18ZM146.72 30.7c-.2-.04-.26-.25-.46-.16-.1 0-.2.05-.29.08-.03.17-.12 0-.17.15l-.02-.1c-.02.06-.04.09-.06.04v-.03c-.02.07-.05.03-.07.07v-.03l-.03.02v-.04c-.04.08-.09.09-.13.05v.12c-.09-.13-.11.11-.2-.04v-.02c-.1.3-.18-.2-.27.1l-.01-.1c-.05.04-.1.06-.1.29-.03 0-.03-.07-.04-.16 0 .1-.02.15-.05.15l.01-.04-.08.04.03.19c-.05-.05-.03-.23-.06-.18v.15c-.06-.02-.1-.26-.17-.37-.24-.05-.48.36-.72.1l-.02-.12c-.01-.17-.05.26-.06.1l-.03.08c0-.03-.02-.06-.01-.1-.03 0-.02.02-.04.07l-.03-.1c-.1-.08-.17.13-.27.1-.14-.22-.35 0-.48.12-.18.27-.38-.43-.53-.13-.01-.03-.03.03-.03.04l-.14-.02s-.18-.02-.31.14c-.12.16-.25.5.03 1.2v.04c.1.1.16.12.24-.07 0 .23.08.03.1.1v.02c.07-.17.13.15.2 0 0 .01 0 .07-.02.08.04-.03.1-.08.11.05.1-.03.27.03.31-.18v.03c.03-.14.05-.02.08-.1v.04c.03-.15.12-.03.14-.1l.01.1.07-.03-.03-.02c0-.24.07.15.12 0 .05.02.07-.52.13-.4.02-.12-.01.18.02.1v.17c.04-.06.08.13.12.04v.1c.05-.18.13.13.15-.05.06-.08.06.3.12.1l.03.13c.03.02 0-.17.04-.1 0 .08.04.06.03.14.08.13.13-.2.24.03 0-.17.06-.07.06-.2.01.07.1 0 .05.17v-.02l-.01.1c.06.18.09-.1.14-.08-.02-.04-.03-.03-.03-.1l.05.02v.08l.07.04-.01-.1c.03.05.06.22.09.08.01-.08-.04-.14 0-.17.04.07.12.17.18.2-.01-.12 0-.12.02-.14v.1c.06-.14.04.22.1.1v.07-.2c.05-.2.04.2.1-.07-.03.01-.03-.22 0-.18v.1c.01-.03.02-.07.03-.05 0 .06 0 .14.03.13l-.01.12.03-.18c.05.1.1-.03.12.1 0 0 .08.06.1-.09-.02.1.03.13.02.24.01-.1.07-.2.1-.09v.02c.1.1.14-.17.23-.03-.01-.12.03-.06.01-.2.08-.15.17.28.18-.17.04-.03.05.1.07.13v.02c.06-.04.08-.05.13-.04.03-.04.02-.26.07-.2-.01.08.01.06.03.06-.01.01-.02.05 0 .1l.02-.05v.01c.03-.03.02-.05 0-.06v-.06c.04.11.09 0 .1.14.08-.04.14-.2.2-.25.02.07 0 .14-.01.17l.05-.03c0 .1-.03.06-.05.08.08.17.13-.18.2-.02l.01-.09.01.02.02-.13c.02.1.01.22.05.21.03.1.07-.05.11-.1-.02-.02-.02-.07-.01-.1.02 0 .03.09.04.05l.01.12c-.01-.12.04-.13.05-.18.01.1-.03.08-.03.15l.1-.02c.04-.1 0-.12 0-.23.04-.03.07-.11.11-.04l-.02-.11c.06-.1.1-.08.15.03.42-.93.03-1.25.03-1.25-.2-.23-.27.1-.49.2ZM138.76 22.04c-.09.07-.17.07-.24.08h-.07a.23.23 0 0 0-.07.13c-.08.08-.1.2-.15.3.1.15-.08.12 0 .25l-.1-.04c.03.05.05.09 0 .07l-.03-.02c.04.07-.01.08 0 .11l-.01-.02-.01.04-.03-.03c.03.09 0 .14-.05.15l.09.07c-.16 0 0 .17-.17.16l-.02-.02c.18.27-.27.04-.1.3-.03-.04-.06-.04-.08-.05 0 .06-.02.12.16.24-.03.03-.07-.01-.15-.05.08.05.1.1.08.13l-.02-.04-.02.1.16.08c-.06 0-.2-.11-.18-.05l.13.08c-.05.03-.26-.06-.39-.07-.18.18.01.6-.33.66l-.1-.05c-.14-.09.18.18.04.1l.05.07c-.03-.01-.06-.01-.09-.05-.01.02 0 .04.04.08l-.1-.04c-.11.04.01.22-.07.28-.24 0-.2.3-.17.47.11.29-.56.17-.4.45l.04.04-.09.11s-.1.12-.03.29c.08.14.21.51.98.65l.02.02c.14-.04.2-.1.09-.26.19.1.06-.07.13-.05l.02.01c-.12-.15.18-.04.08-.17.02 0 .07.04.06.05 0-.05-.02-.13.1-.07.02-.1.12-.18-.03-.33l.03.02c-.1-.1 0-.05-.04-.12l.03.01c-.1-.1.04-.1.01-.16l.07.04.02-.07-.03.01c-.19-.13.16.03.06-.1.05-.03-.36-.35-.24-.33-.07-.08.14.11.1.04.1.06.05.05.13.1-.02-.07.14 0 .1-.08l.08.05c-.12-.14.16-.03.04-.15-.03-.1.27.11.14-.04l.12.05c.04-.01-.12-.1-.05-.1.07.05.07 0 .13.06.14.01-.08-.22.15-.18-.13-.1-.02-.09-.12-.17.06.04.06-.07.16.05 0 .01 0 .02-.02 0l.08.06c.17.05-.04-.13.01-.16-.03 0-.03.02-.08-.03l.03-.03.07.05.07-.04-.09-.04c.06 0 .21.07.11-.04-.05-.05-.13-.04-.13-.09.08 0 .2 0 .26-.04-.1-.06-.09-.07-.1-.1l.08.06c-.08-.13.2.09.13-.02l.06.04-.16-.12c-.13-.15.18.08 0-.1 0 .02-.19-.11-.13-.11l.07.05c0-.02-.04-.05-.01-.04.03.03.1.07.1.05l.1.07-.13-.13c.1.03.03-.08.15-.02 0 0 .1-.02-.02-.12.07.07.12.06.2.12-.07-.07-.1-.16-.01-.12v.01c.14 0-.03-.2.12-.17-.1-.07-.03-.06-.14-.14-.07-.15.3.07-.02-.23 0-.05.1.03.13.03l.01.02c.01-.08.02-.1.05-.13-.02-.04-.17-.18-.1-.19.05.07.04.05.06.03 0 .02.02.04.07.06a.36.36 0 0 1-.03-.05l.02.02c-.01-.04-.03-.06-.05-.05l-.04-.03c.1.04.04-.08.15.01.02-.08-.05-.23-.05-.32.05.04.1.1.1.13l.01-.06c.08.07.03.07.03.1.15.07-.04-.23.13-.2l-.05-.06h.01a.28.28 0 0 1-.07-.1c.07.06.16.14.18.1.08.04.01-.08 0-.14-.03 0-.06-.03-.08-.06 0-.01.08.04.06 0l.1.08c-.1-.07-.08-.11-.11-.15.07.05.04.07.1.12.02-.06 0-.03.03-.08-.04-.09-.08-.08-.15-.16 0-.04-.04-.12.03-.1l-.08-.06c-.02-.1.02-.12.11-.06-.1-.49-.11-.8-.25-.96-.14-.15-.33-.13-.33-.13-.46.04-.37.44-.45.68Z" fill="#EAF319"/><defs><filter id="a" x="0" y="20" width="30.38" height="37.44" filterUnits="userSpaceOnUse" color-interpolation-filters="sRGB"><feFlood flood-opacity="0" result="BackgroundImageFix"/><feColorMatrix in="SourceAlpha" values="0 0 0 0 0 0 0 0 0 0 0 0 0 0 0 0 0 0 127 0" result="hardAlpha"/><feOffset dy="4"/><feGaussianBlur stdDeviation="2"/><feComposite in2="hardAlpha" operator="out"/><feColorMatrix values="0 0 0 0 0 0 0 0 0 0 0 0 0 0 0 0 0 0 0.25 0"/><feBlend in2="BackgroundImageFix" result="effect1_dropShadow_1_125"/><feBlend in="SourceGraphic" in2="effect1_dropShadow_1_125" result="shape"/></filter></defs></svg>